HIERARCHY
ROOT Hips
{
	OFFSET 0.000000 0.000000 0.000000
	CHANNELS 6 Xposition Yposition Zposition Xrotation Yrotation Zrotation
	JOINT LeftUpLeg_virtual
	{
		OFFSET 0.000000 0.000000 0.000000
		CHANNELS 3 Xrotation Yrotation Zrotation
		JOINT LeftUpLeg
		{
			OFFSET 13.026900 -6.336304 -1.092800
			CHANNELS 3 Xrotation Yrotation Zrotation
			JOINT LeftLeg
			{
				OFFSET 0.524474 -46.096886 9.782700
				CHANNELS 3 Xrotation Yrotation Zrotation
				JOINT LeftFoot
				{
					OFFSET -0.524474 -53.427422 -12.948200
					CHANNELS 3 Xrotation Yrotation Zrotation
					JOINT LeftToeBase
					{
						OFFSET 0.192200 -14.009700 16.364100
						CHANNELS 3 Xrotation Yrotation Zrotation
						JOINT LeftToe_End
						{
							OFFSET -1.784700 -0.561700 9.474800
							CHANNELS 3 Xrotation Yrotation Zrotation
							End Site
							{
								OFFSET 0 0 0
							}
						}
					}
				}
			}
		}
	}
	JOINT RightUpLeg_virtual
	{
		OFFSET 0.000000 0.000000 0.000000
		CHANNELS 3 Xrotation Yrotation Zrotation
		JOINT RightUpLeg
		{
			OFFSET -12.883000 -6.336304 -1.092800
			CHANNELS 3 Xrotation Yrotation Zrotation
			JOINT RightLeg
			{
				OFFSET -0.524587 -46.096825 9.782800
				CHANNELS 3 Xrotation Yrotation Zrotation
				JOINT RightFoot
				{
					OFFSET 0.524587 -53.427383 -12.948300
					CHANNELS 3 Xrotation Yrotation Zrotation
					JOINT RightToeBase
					{
						OFFSET -0.192200 -14.009700 16.364100
						CHANNELS 3 Xrotation Yrotation Zrotation
						JOINT RightToe_End
						{
							OFFSET 1.784700 -0.561700 9.474800
							CHANNELS 3 Xrotation Yrotation Zrotation
							End Site
							{
								OFFSET 0 0 0
							}
						}
					}
				}
			}
		}
	}
	JOINT Spine_virtual
	{
		OFFSET 0.000000 0.000000 0.000000
		CHANNELS 3 Xrotation Yrotation Zrotation
		JOINT Spine
		{
			OFFSET 0.072000 7.257294 -0.789700
			CHANNELS 3 Xrotation Yrotation Zrotation
			JOINT Spine1
			{
				OFFSET 0.000000 12.508769 -0.658067
				CHANNELS 3 Xrotation Yrotation Zrotation
				JOINT Spine1_split
				{
					OFFSET 0.000000 12.508769 -0.658067
					CHANNELS 3 Xrotation Yrotation Zrotation
					JOINT Spine2
					{
						OFFSET 0.000000 12.508769 -0.658067
						CHANNELS 3 Xrotation Yrotation Zrotation
						JOINT Neck_virtual
						{
							OFFSET 0.000000 0.000000 0.000000
							CHANNELS 3 Xrotation Yrotation Zrotation
							JOINT Neck
							{
								OFFSET 0.000000 14.033295 7.520400
								CHANNELS 3 Xrotation Yrotation Zrotation
								JOINT Head
								{
									OFFSET 0.000000 8.198502 5.703100
									CHANNELS 3 Xrotation Yrotation Zrotation
									JOINT HeadTop_End
									{
										OFFSET 0.000000 17.760803 13.332701
										CHANNELS 3 Xrotation Yrotation Zrotation
										End Site
										{
											OFFSET 0 0 0
										}
									}
								}
							}
						}
						JOINT LeftShoulder_virtual
						{
							OFFSET 0.000000 0.000000 0.000000
							CHANNELS 3 Xrotation Yrotation Zrotation
							JOINT LeftShoulder
							{
								OFFSET 6.292450 5.785301 -0.669000
								CHANNELS 3 Xrotation Yrotation Zrotation
								JOINT LeftShoulder_split
								{
									OFFSET 6.292450 5.785301 -0.669000
									CHANNELS 3 Xrotation Yrotation Zrotation
									JOINT LeftArm
									{
										OFFSET 13.907140 -6.093903 1.965100
										CHANNELS 3 Xrotation Yrotation Zrotation
										JOINT LeftForeArm
										{
											OFFSET 34.140198 0.000000 0.000000
											CHANNELS 3 Xrotation Yrotation Zrotation
											JOINT LeftHand
											{
												OFFSET 40.960209 0.000000 0.000000
												CHANNELS 3 Xrotation Yrotation Zrotation
												End Site
												{
													OFFSET 0 0 0
												}
											}
										}
									}
								}
							}
						}
						JOINT RightShoulder_virtual
						{
							OFFSET 0.000000 0.000000 0.000000
							CHANNELS 3 Xrotation Yrotation Zrotation
							JOINT RightShoulder
							{
								OFFSET -6.292450 5.785301 -0.669000
								CHANNELS 3 Xrotation Yrotation Zrotation
								JOINT RightShoulder_split
								{
									OFFSET -6.292450 5.785301 -0.669000
									CHANNELS 3 Xrotation Yrotation Zrotation
									JOINT RightArm
									{
										OFFSET -13.907140 -6.093903 1.965100
										CHANNELS 3 Xrotation Yrotation Zrotation
										JOINT RightForeArm
										{
											OFFSET -34.140198 0.000000 0.000000
											CHANNELS 3 Xrotation Yrotation Zrotation
											JOINT RightHand
											{
												OFFSET -40.960209 0.000000 0.000000
												CHANNELS 3 Xrotation Yrotation Zrotation
												End Site
												{
													OFFSET 0 0 0
												}
											}
										}
									}
								}
							}
						}
					}
				}
			}
		}
	}
}
MOTION
Frames: 4
Frame Time: 0.03333333
-1.843109 113.196793 1.326000 0.000000 0.000000 0.000000 5.077841 -12.393409 0.054746 -17.895026 9.283065 14.239230 17.825448 5.207411 0.651478 -0.443042 5.664154 -11.603153 -0.426057 -1.575345 -3.101932 0.000000 0.000000 0.000000 5.138496 -12.017575 0.292751 -9.160256 -7.880326 -8.737006 13.126204 -4.515697 -1.141378 -10.082401 0.734170 8.503924 -6.622105 1.101298 2.345064 0.000000 0.000000 0.000000 5.745573 -9.764804 0.090756 10.013195 -0.392054 0.309293 1.974122 3.757308 0.005067 0.118170 -1.889049 0.414749 0.000000 0.000000 0.000000 -8.736649 2.377179 1.309553 -8.695731 5.723609 -6.216490 9.671407 -4.492799 13.739476 0.000000 0.000000 0.000000 -9.186860 2.343632 1.020787 -1.076926 5.793130 -4.588382 1.653419 -2.569587 -0.511460 -5.833128 -0.799603 -68.551781 -0.074584 -18.941170 -0.234044 0.000000 0.000000 0.000000 -8.960509 2.037042 0.965548 -1.532904 0.106157 5.622165 -3.367391 -3.187746 -0.576435 7.604732 10.720866 71.142854 -1.335595 23.409908 2.742357 0.000000 0.000000 0.000000 
-1.083212 112.892464 1.257221 0.000000 0.000000 0.000000 5.140277 -12.721296 0.180997 -17.893178 9.295876 13.936872 17.963259 5.256000 0.590736 -0.809685 5.698317 -11.540189 -0.471879 -1.596623 -2.975925 0.000000 0.000000 0.000000 5.164875 -11.956037 0.401159 -9.580098 -8.264124 -9.012946 13.576574 -4.680859 -1.132672 -10.588804 0.500343 7.883093 -5.427587 1.119141 2.272984 0.000000 0.000000 0.000000 5.661141 -10.098795 0.072419 10.046784 -0.521917 0.436224 2.041720 3.748826 -0.047455 -0.153343 -1.906968 0.304853 0.000000 0.000000 0.000000 -8.808857 2.302315 1.280265 -8.489482 5.242830 -6.145265 9.812167 -5.084316 14.480138 0.000000 0.000000 0.000000 -9.151062 2.306596 0.919185 -1.082468 5.974074 -4.653504 1.717321 -1.823072 -0.587499 -5.975429 -0.445880 -68.637015 -0.023322 -18.690505 -0.147794 0.000000 0.000000 0.000000 -8.918164 1.999441 0.940410 -1.470261 -0.076049 5.696928 -2.659920 -1.815101 -1.015984 8.449640 11.274948 70.692287 -1.191995 24.069045 2.625344 0.000000 0.000000 0.000000 
-0.074328 112.469162 1.445274 0.000000 0.000000 0.000000 5.097175 -13.148024 0.302105 -18.221591 9.563438 13.653047 18.632397 5.299262 0.556086 -1.360104 5.591670 -11.538426 -0.546606 -1.607652 -2.835490 0.000000 0.000000 0.000000 5.130624 -12.156632 0.510658 -10.166107 -8.574812 -9.416667 14.039484 -4.582740 -1.201816 -10.782281 0.051911 8.046700 -5.248492 1.099432 2.042677 0.000000 0.000000 0.000000 5.698210 -10.630566 0.140716 10.165966 -0.727510 0.590656 2.128090 3.794405 -0.114448 -0.281658 -1.728399 0.331603 0.000000 0.000000 0.000000 -8.811503 2.297425 1.221830 -8.770396 3.899795 -5.917788 10.600406 -7.439753 15.705571 0.000000 0.000000 0.000000 -9.148908 2.294318 0.810906 -1.168898 6.072139 -4.541739 1.807402 -1.080501 -0.511800 -5.410525 0.059803 -68.709756 -0.031543 -19.174911 -0.139308 0.000000 0.000000 0.000000 -8.880428 2.002535 0.913762 -1.344242 -0.496397 5.844677 -2.134328 -0.732656 -1.622299 10.181243 12.491212 69.964749 -0.849486 25.008441 2.326070 0.000000 0.000000 0.000000 
1.056317 112.019928 1.739124 0.000000 0.000000 0.000000 5.031658 -13.640695 0.415881 -18.837814 10.024529 13.400187 19.610574 5.414664 0.557327 -1.995275 5.408406 -11.523052 -0.640980 -1.606765 -2.685685 0.000000 0.000000 0.000000 5.085360 -12.564981 0.609627 -10.785448 -8.716068 -9.885117 14.291633 -4.158547 -1.298700 -10.420736 -0.366482 9.019548 -6.013103 1.040417 1.759521 0.000000 0.000000 0.000000 5.913465 -11.297294 0.245994 10.337412 -0.952288 0.732549 2.235436 3.847218 -0.198417 -0.212685 -1.484349 0.452856 0.000000 0.000000 0.000000 -8.715274 2.334444 1.129081 -9.544341 1.899250 -5.602374 11.832055 -11.161339 17.124550 0.000000 0.000000 0.000000 -9.150320 2.277552 0.696869 -1.322499 6.005744 -4.346232 2.041939 -0.546374 -0.381196 -4.070670 0.609430 -68.748559 -0.049222 -20.470027 -0.208475 0.000000 0.000000 0.000000 -8.850831 2.019415 0.884700 -1.144547 -1.163232 6.066599 -1.745349 -0.287116 -2.112995 12.323001 13.922243 69.174892 -0.414172 26.103933 1.927312 0.000000 0.000000 0.000000 
